<svg width="1489.733" height="1486" xmlns="http://www.w3.org/2000/svg">

 <g>
  <title>background</title>
  <rect fill="none" id="canvas_background" height="402" width="582" y="-1" x="-1"/>
 </g>
 <g>
  <title>Layer 1</title>
  <path fill="#ffffff" stroke="null" id="svg_2" d="m1237.309898,1290.748786l-33.546489,-776.815641c-0.580508,-55.93638 -46.506761,-100.909886 -102.874225,-100.909886l-712.100894,0c-56.348951,0 -102.259997,44.97615 -102.839844,100.91187l-33.525332,776.991512c-0.027108,0.627451 -0.040993,1.327631 -0.040993,1.954421c0,56.559203 46.148406,102.642154 102.872903,102.642154l779.226931,0c56.721851,0 102.868936,-46.172209 102.868936,-102.730751c-0.000661,-0.627451 -0.014546,-1.415567 -0.040993,-2.043679zm-102.828604,17.499871l-779.22627,0c-8.47555,0 -15.160649,-6.551542 -15.491895,-14.768574l33.50748,-776.844071c0.026447,-0.629435 0.040331,-1.000352 0.040331,-1.627142c0,-8.392903 6.79882,-14.711053 15.47735,-14.711053l712.100894,0c8.697042,0 15.511069,6.265917 15.511069,14.659481c0,0.628112 0.013885,1.102833 0.040993,1.729623l33.528638,776.872501c-0.332569,8.214387 -7.015684,14.689234 -15.48859,14.689234z"/>
  <rect stroke="null" id="svg_6" height="861.910402" width="857.148435" y="478.414927" x="316.292267" stroke-opacity="null" stroke-width="null" fill="#ffffff"/>
  <path fill="#440106" stroke="null" id="svg_4" d="m863.862174,484.829315c-19.78147,0 -36.05108,16.03596 -36.05108,35.81851l0,108.24649c0,45.60327 -37.30501,82.70552 -83.2368,82.70552c-45.90793,0 -83.19451,-37.10225 -83.19451,-82.70552l0,-108.24649c0,-19.78255 -15.99855,-35.81851 -35.78002,-35.81851s-35.78002,16.03596 -35.78002,35.81851l0,108.24649c0,85.10387 69.61708,154.342 155.02561,154.342c85.43185,0 155.0679,-69.23813 155.0679,-154.342l0,-108.24649c0,-19.78255 -16.27015,-35.81851 -36.05108,-35.81851z"/>
  <path fill="#ffffff" stroke="null" transform="rotate(-180 744.8665161132812,286.4114685058594) " id="svg_3" d="m863.862158,137.207973c-19.781472,0 -36.051082,16.035955 -36.051082,35.818512l0,108.24649c0,45.603263 -37.305009,82.705518 -83.236798,82.705518c-45.907935,0 -83.194512,-37.102255 -83.194512,-82.705518l0,-108.24649c0,-19.782557 -15.998548,-35.818512 -35.780021,-35.818512s-35.780021,16.035955 -35.780021,35.818512l0,108.24649c0,85.103864 69.617078,154.341999 155.025615,154.341999c85.431848,0 155.0679,-69.238135 155.0679,-154.341999l0,-108.24649c0,-19.782557 -16.270151,-35.818512 -36.051082,-35.818512z"/>
 </g>
</svg>