<svg width="32" height="32" xmlns="http://www.w3.org/2000/svg">

 <g>
  <title>background</title>
  <rect fill="none" id="canvas_background" height="402" width="582" y="-1" x="-1"/>
 </g>
 <g>
  <title>Layer 1</title>
  <path fill="#ffffff" stroke="#ffffff" id="svg_1" d="m28,1c1.654,0 3,1.346 3,3l0,24c0,1.654 -1.346,3 -3,3l-24,0c-1.654,0 -3,-1.346 -3,-3l0,-24c0,-1.654 1.346,-3 3,-3l24,0m0,-1l-24,0c-2.2,0 -4,1.8 -4,4l0,24c0,2.2 1.8,4 4,4l24,0c2.2,0 4,-1.8 4,-4l0,-24c0,-2.2 -1.8,-4 -4,-4l0,0z"/>
  <path fill="#ffffff" stroke="null" id="svg_2" d="m17.269625,30.669917l5.011119,0l0,-12.127773l3.342929,0l0.442581,-4.178333l-3.78551,0l0.005238,-2.09244c0,-1.089431 0.103444,-1.673428 1.666881,-1.673428l2.089821,0l0,-4.180952l-3.344238,0c-4.015966,0 -5.428822,2.028279 -5.428822,5.436678l0,2.508833l-2.503596,0l0,4.179643l2.503596,0l0,12.127773z"/>
 </g>
</svg>