<svg width="512" height="512" xmlns="http://www.w3.org/2000/svg">

 <g>
  <title>background</title>
  <rect fill="none" id="canvas_background" height="402" width="582" y="-1" x="-1"/>
 </g>
 <g>
  <title>Layer 1</title>
  <path id="svg_2" fill="#ffffff" d="m505,257c0,35.8 0.1,71.6 0,107.5c-0.2,52 -24.4,90.5 -67.6,117.7c-25.3,15.8 -53.4,22.8 -83.2,22.8c-65.2,0 -130.3,0.3 -195.5,-0.1c-45.3,-0.3 -84.3,-16.3 -115.2,-49.9c-19.1,-20.8 -30.5,-45.3 -33.8,-73.6c-0.7,-6 -0.8,-11.9 -0.8,-17.9c0,-71.3 -0.1,-142.6 0,-213.9c0.3,-52.1 24.5,-90.6 67.7,-117.8c25.5,-15.9 53.7,-22.8 83.7,-22.8c65,0 130,-0.3 195,0.1c45.5,0.3 84.6,16.4 115.5,50.2c18.9,20.7 30.2,45.2 33.4,73.2c1.3,11 0.7,22 0.8,32.9c0.1,30.6 0,61.1 0,91.6zm-459,0c0,36.7 -0.1,73.3 0,110c0.1,25.2 9.3,46.9 26.5,64.9c23.1,24.1 51.9,35.8 85,36c65.7,0.4 131.3,0.1 197,0.1c21.2,0 41.4,-4.6 59.8,-15.2c34.4,-19.7 53.8,-48.7 53.8,-89.3c0,-72.2 0,-144.3 0,-216.5c0,-25 -9.1,-46.6 -26.2,-64.5c-22.9,-24.2 -51.8,-36.1 -84.8,-36.3c-66.4,-0.5 -132.7,-0.2 -199.1,-0.2c-20.7,0 -40.3,4.9 -58.3,15.1c-34.3,19.8 -53.8,48.8 -53.7,89.4c0,35.5 0,71 0,106.5z"/>
  <path id="svg_3" fill="#ffffff" d="m257.3,363c-64.6,0 -116.4,-51.6 -116.3,-116c0.1,-62.7 52.6,-114.1 116.7,-114c64.4,0 116.4,51.7 116.3,115.5c-0.1,63.2 -52.4,114.5 -116.7,114.5zm0,-37c43.9,0 79.7,-34.9 79.7,-77.8c0,-43.1 -35.5,-78.2 -79.3,-78.2c-43.9,0 -79.7,34.9 -79.7,77.8c0,43.1 35.5,78.2 79.3,78.2z"/>
  <path id="svg_4" fill="#ffffff" d="m363,123.6c0,-14.2 10.9,-25.6 24.5,-25.6c13.6,0 24.5,11.5 24.5,25.6c0,13.9 -10.9,25.3 -24.3,25.4c-13.6,0.1 -24.7,-11.2 -24.7,-25.4z"/>
 </g>
</svg>