<?xml version="1.0" standalone="no"?>
<!DOCTYPE svg PUBLIC "-//W3C//DTD SVG 20010904//EN"
 "http://www.w3.org/TR/2001/REC-SVG-20010904/DTD/svg10.dtd">
<svg version="1.0" xmlns="http://www.w3.org/2000/svg"
 width="3373.000000pt" height="3972.000000pt" viewBox="0 0 3373.000000 3972.000000"
 preserveAspectRatio="xMidYMid meet">

<g transform="translate(0.000000,3972.000000) scale(0.100000,-0.100000)"
fill="#000000" stroke="none">
<path d="M15330 39709 c-1480 -90 -2901 -495 -4190 -1197 -2058 -1119 -3673
-2937 -4541 -5112 -291 -732 -494 -1495 -609 -2295 -16 -115 -30 -213 -30
-217 0 -4 -1056 -9 -2347 -11 l-2348 -3 -97 -22 c-619 -142 -1071 -626 -1158
-1237 -8 -59 -10 -3504 -8 -13235 l3 -13155 22 -86 c107 -427 352 -758 716
-967 163 -93 326 -148 526 -177 95 -14 832 -15 6966 -13 l6860 3 92 22 c209
50 403 135 558 245 191 135 385 366 480 572 111 240 159 510 135 765 -62 668
-534 1189 -1203 1328 -77 16 -468 17 -6144 20 l-6063 3 0 11490 0 11490 1470
0 1470 0 3 -2302 c3 -2569 -3 -2351 73 -2578 76 -229 183 -401 358 -576 290
-290 638 -434 1046 -434 408 0 756 144 1046 434 175 175 282 347 358 576 76
227 70 9 73 2578 l3 2302 7070 0 7070 0 3 -2307 3 -2308 22 -96 c68 -297 188
-521 388 -729 205 -212 447 -349 733 -417 157 -37 410 -43 576 -15 296 51 557
180 767 380 235 224 376 483 445 817 15 73 17 285 20 2378 l3 2297 1470 0
1470 0 3 -5342 c2 -5125 3 -5346 21 -5418 75 -311 196 -532 405 -740 202 -202
408 -320 677 -390 158 -41 338 -56 497 -41 376 35 690 187 949 459 188 198
315 443 375 722 17 82 18 336 18 6265 0 5988 -1 6183 -19 6265 -63 288 -203
547 -407 750 -224 223 -513 369 -823 415 -91 13 -382 15 -2404 15 l-2301 0 -5
33 c-3 17 -13 86 -21 152 -131 1004 -455 2069 -919 3020 -1125 2305 -3106
4108 -5498 5004 -950 356 -1908 557 -2958 621 -191 12 -952 11 -1150 -1z
m1086 -2960 c1229 -90 2384 -484 3404 -1162 911 -605 1678 -1421 2226 -2369
404 -699 698 -1507 838 -2305 l6 -33 -6971 0 -6970 0 7 38 c300 1713 1235
3265 2624 4353 1264 990 2838 1520 4436 1493 144 -2 324 -9 400 -15z"/>
<path d="M25590 16230 c-499 -68 -931 -374 -1154 -819 -87 -173 -135 -333
-155 -523 -8 -66 -11 -908 -11 -2592 l0 -2496 -2752 -3 -2753 -3 -86 -21
c-197 -49 -351 -114 -496 -209 -326 -211 -550 -519 -646 -889 -40 -156 -47
-234 -47 -565 0 -260 3 -326 19 -422 38 -217 131 -442 257 -620 78 -110 247
-278 359 -356 171 -121 393 -214 615 -259 79 -16 284 -17 2808 -20 l2722 -3 0
-2500 c0 -2716 -2 -2606 55 -2818 146 -543 585 -958 1146 -1084 99 -22 123
-23 484 -23 330 0 391 2 465 18 609 132 1052 568 1192 1175 l23 97 2 2567 3
2568 2303 0 c1288 1 2346 5 2402 10 197 18 358 62 530 145 430 208 719 579
828 1062 20 91 22 123 22 468 0 350 -1 376 -23 475 -90 407 -310 735 -646 961
-148 100 -318 173 -515 222 l-86 21 -2407 3 -2408 3 0 2526 c0 2780 3 2618
-61 2837 -38 130 -120 300 -200 419 -88 129 -276 316 -404 401 -168 111 -341
184 -544 228 -86 19 -133 22 -436 25 -187 1 -369 -2 -405 -6z"/>
</g>
</svg>
