<svg width="16" height="16" xmlns="http://www.w3.org/2000/svg">

 <g>
  <title>background</title>
  <rect fill="none" id="canvas_background" height="402" width="582" y="-1" x="-1"/>
 </g>
 <g>
  <title>Layer 1</title>
  <path fill="#ffffff" id="svg_1" d="m15.734238,14.3l-3.105,-3.105c0.878,-1.171 1.405,-2.619 1.405,-4.195c0,-3.866 -3.134,-7 -7,-7s-7,3.134 -7,7s3.134,7 7,7c1.576,0 3.024,-0.527 4.194,-1.405l3.106,3.105c0.184,0.184 0.38,0.3 0.7,0.3c0.553,0 1,-0.447 1,-1c0,-0.219 -0.054,-0.454 -0.3,-0.7zm-13.7,-7.3c0,-2.762 2.238,-5 5,-5s5,2.238 5,5s-2.238,5 -5,5s-5,-2.238 -5,-5z"/>
 </g>
</svg>